<mxfile host="app.diagrams.net" agent="Mozilla/5.0 (Windows NT 10.0; Win64; x64) AppleWebKit/537.36 (KHTML, like Gecko) Chrome/131.0.0.0 Safari/537.36 Edg/131.0.0.0" version="25.0.1">
  <diagram name="Page-1" id="TRIcSzvMwTBqPW4PaHWP">
    <mxGraphModel dx="218" dy="117" grid="1" gridSize="10" guides="1" tooltips="1" connect="1" arrows="1" fold="1" page="1" pageScale="1" pageWidth="850" pageHeight="1100" math="0" shadow="0">
      <root>
        <mxCell id="0" />
        <mxCell id="1" parent="0" />
        <mxCell id="cno6Sk6SoOCN1DbC5Ceq-20" value="" style="rounded=0;whiteSpace=wrap;html=1;" vertex="1" parent="1">
          <mxGeometry x="310" y="30" width="340" height="270" as="geometry" />
        </mxCell>
        <mxCell id="cno6Sk6SoOCN1DbC5Ceq-5" value="Designer" style="swimlane;fontStyle=1;align=center;verticalAlign=top;childLayout=stackLayout;horizontal=1;startSize=26;horizontalStack=0;resizeParent=1;resizeParentMax=0;resizeLast=0;collapsible=1;marginBottom=0;whiteSpace=wrap;html=1;fillColor=#dae8fc;strokeColor=#6c8ebf;" vertex="1" parent="1">
          <mxGeometry x="520" y="80" width="120" height="52" as="geometry" />
        </mxCell>
        <mxCell id="cno6Sk6SoOCN1DbC5Ceq-8" value="+ design(): void" style="text;strokeColor=none;fillColor=none;align=left;verticalAlign=top;spacingLeft=4;spacingRight=4;overflow=hidden;rotatable=0;points=[[0,0.5],[1,0.5]];portConstraint=eastwest;whiteSpace=wrap;html=1;" vertex="1" parent="cno6Sk6SoOCN1DbC5Ceq-5">
          <mxGeometry y="26" width="120" height="26" as="geometry" />
        </mxCell>
        <mxCell id="cno6Sk6SoOCN1DbC5Ceq-13" value="Developer" style="swimlane;fontStyle=1;align=center;verticalAlign=top;childLayout=stackLayout;horizontal=1;startSize=26;horizontalStack=0;resizeParent=1;resizeParentMax=0;resizeLast=0;collapsible=1;marginBottom=0;whiteSpace=wrap;html=1;fillColor=#e1d5e7;strokeColor=#9673a6;" vertex="1" parent="1">
          <mxGeometry x="520" y="160" width="120" height="52" as="geometry" />
        </mxCell>
        <mxCell id="cno6Sk6SoOCN1DbC5Ceq-14" value="+ code(): void" style="text;strokeColor=none;fillColor=none;align=left;verticalAlign=top;spacingLeft=4;spacingRight=4;overflow=hidden;rotatable=0;points=[[0,0.5],[1,0.5]];portConstraint=eastwest;whiteSpace=wrap;html=1;" vertex="1" parent="cno6Sk6SoOCN1DbC5Ceq-13">
          <mxGeometry y="26" width="120" height="26" as="geometry" />
        </mxCell>
        <mxCell id="cno6Sk6SoOCN1DbC5Ceq-15" value="Tester" style="swimlane;fontStyle=1;align=center;verticalAlign=top;childLayout=stackLayout;horizontal=1;startSize=26;horizontalStack=0;resizeParent=1;resizeParentMax=0;resizeLast=0;collapsible=1;marginBottom=0;whiteSpace=wrap;html=1;fillColor=#fff2cc;strokeColor=#d6b656;" vertex="1" parent="1">
          <mxGeometry x="520" y="240" width="120" height="52" as="geometry" />
        </mxCell>
        <mxCell id="cno6Sk6SoOCN1DbC5Ceq-16" value="+ test(): void" style="text;strokeColor=none;fillColor=none;align=left;verticalAlign=top;spacingLeft=4;spacingRight=4;overflow=hidden;rotatable=0;points=[[0,0.5],[1,0.5]];portConstraint=eastwest;whiteSpace=wrap;html=1;" vertex="1" parent="cno6Sk6SoOCN1DbC5Ceq-15">
          <mxGeometry y="26" width="120" height="26" as="geometry" />
        </mxCell>
        <mxCell id="cno6Sk6SoOCN1DbC5Ceq-17" value="Manager" style="swimlane;fontStyle=1;align=center;verticalAlign=top;childLayout=stackLayout;horizontal=1;startSize=26;horizontalStack=0;resizeParent=1;resizeParentMax=0;resizeLast=0;collapsible=1;marginBottom=0;whiteSpace=wrap;html=1;fillColor=#f8cecc;strokeColor=#b85450;" vertex="1" parent="1">
          <mxGeometry x="320" y="160" width="120" height="52" as="geometry" />
        </mxCell>
        <mxCell id="cno6Sk6SoOCN1DbC5Ceq-18" value="+ manage(): void" style="text;strokeColor=none;fillColor=none;align=left;verticalAlign=top;spacingLeft=4;spacingRight=4;overflow=hidden;rotatable=0;points=[[0,0.5],[1,0.5]];portConstraint=eastwest;whiteSpace=wrap;html=1;" vertex="1" parent="cno6Sk6SoOCN1DbC5Ceq-17">
          <mxGeometry y="26" width="120" height="26" as="geometry" />
        </mxCell>
        <mxCell id="cno6Sk6SoOCN1DbC5Ceq-21" value="&lt;b&gt;&lt;font style=&quot;font-size: 18px;&quot;&gt;My Team&lt;/font&gt;&lt;/b&gt;" style="text;html=1;align=center;verticalAlign=middle;whiteSpace=wrap;rounded=0;fillColor=#ffe6cc;strokeColor=#d79b00;" vertex="1" parent="1">
          <mxGeometry x="430" y="40" width="100" height="30" as="geometry" />
        </mxCell>
        <mxCell id="cno6Sk6SoOCN1DbC5Ceq-22" value="Use" style="endArrow=open;endSize=12;dashed=1;html=1;rounded=0;exitX=1;exitY=0.5;exitDx=0;exitDy=0;entryX=0.022;entryY=0.128;entryDx=0;entryDy=0;entryPerimeter=0;edgeStyle=orthogonalEdgeStyle;" edge="1" parent="1" source="cno6Sk6SoOCN1DbC5Ceq-17" target="cno6Sk6SoOCN1DbC5Ceq-8">
          <mxGeometry x="-0.749" y="6" width="160" relative="1" as="geometry">
            <mxPoint x="540" y="100" as="sourcePoint" />
            <mxPoint x="700" y="100" as="targetPoint" />
            <Array as="points">
              <mxPoint x="490" y="186" />
              <mxPoint x="490" y="109" />
            </Array>
            <mxPoint as="offset" />
          </mxGeometry>
        </mxCell>
        <mxCell id="cno6Sk6SoOCN1DbC5Ceq-24" value="" style="endArrow=none;html=1;rounded=0;entryX=0.5;entryY=0.984;entryDx=0;entryDy=0;entryPerimeter=0;exitX=0.5;exitY=0;exitDx=0;exitDy=0;" edge="1" parent="1" source="cno6Sk6SoOCN1DbC5Ceq-15" target="cno6Sk6SoOCN1DbC5Ceq-14">
          <mxGeometry relative="1" as="geometry">
            <mxPoint x="420" y="220" as="sourcePoint" />
            <mxPoint x="580" y="220" as="targetPoint" />
          </mxGeometry>
        </mxCell>
        <mxCell id="cno6Sk6SoOCN1DbC5Ceq-23" value="" style="endArrow=open;dashed=1;html=1;rounded=0;entryX=0.006;entryY=0.004;entryDx=0;entryDy=0;entryPerimeter=0;exitX=0.998;exitY=-0.013;exitDx=0;exitDy=0;exitPerimeter=0;startArrow=none;startFill=0;endFill=0;endSize=12;" edge="1" parent="1" source="cno6Sk6SoOCN1DbC5Ceq-18" target="cno6Sk6SoOCN1DbC5Ceq-14">
          <mxGeometry width="50" height="50" relative="1" as="geometry">
            <mxPoint x="480" y="187" as="sourcePoint" />
            <mxPoint x="650" y="80" as="targetPoint" />
          </mxGeometry>
        </mxCell>
      </root>
    </mxGraphModel>
  </diagram>
</mxfile>
